<svg xmlns="http://www.w3.org/2000/svg" xmlns:xlink="http://www.w3.org/1999/xlink" width="246" zoomAndPan="magnify" viewBox="0 0 184.5 62.999997" height="84" preserveAspectRatio="xMidYMid meet" version="1.0">
  <style>
    .project-name path { fill: #1B1B18 } @media (prefers-color-scheme:dark) { .project-name path { fill: #fff } }
  </style>
  <defs>
    <g/>
    <clipPath id="eaf2b92755">
      <path d="M 0 8.675781 L 44.839844 8.675781 L 44.839844 53.515625 L 0 53.515625 Z M 0 8.675781 " clip-rule="nonzero"/>
    </clipPath>
    <clipPath id="35e3e6cd85">
      <path d="M 7.480469 8.675781 L 37.359375 8.675781 C 41.488281 8.675781 44.839844 12.023438 44.839844 16.15625 L 44.839844 46.035156 C 44.839844 50.164062 41.488281 53.515625 37.359375 53.515625 L 7.480469 53.515625 C 3.347656 53.515625 0 50.164062 0 46.035156 L 0 16.15625 C 0 12.023438 3.347656 8.675781 7.480469 8.675781 Z M 7.480469 8.675781 " clip-rule="nonzero"/>
    </clipPath>
    <clipPath id="55fb03b0c7">
      <path d="M 7.039062 21.738281 L 24 21.738281 L 24 27.363281 L 7.039062 27.363281 Z M 7.039062 21.738281 " clip-rule="nonzero"/>
    </clipPath>
    <clipPath id="831c0718de">
      <path d="M 9.304688 21.761719 L 21.753906 21.761719 C 22.992188 21.761719 23.996094 22.765625 23.996094 24.003906 L 23.996094 25.121094 C 23.996094 26.359375 22.992188 27.363281 21.753906 27.363281 L 9.304688 27.363281 C 8.066406 27.363281 7.0625 26.359375 7.0625 25.121094 L 7.0625 24.003906 C 7.0625 22.765625 8.066406 21.761719 9.304688 21.761719 Z M 9.304688 21.761719 " clip-rule="nonzero"/>
    </clipPath>
    <clipPath id="1585df8d37">
      <path d="M 32.019531 21.761719 L 37.777344 21.761719 L 37.777344 27.519531 L 32.019531 27.519531 Z M 32.019531 21.761719 " clip-rule="nonzero"/>
    </clipPath>
    <clipPath id="4aa59bf06b">
      <path d="M 34.898438 21.761719 C 33.308594 21.761719 32.019531 23.050781 32.019531 24.640625 C 32.019531 26.230469 33.308594 27.519531 34.898438 27.519531 C 36.488281 27.519531 37.777344 26.230469 37.777344 24.640625 C 37.777344 23.050781 36.488281 21.761719 34.898438 21.761719 Z M 34.898438 21.761719 " clip-rule="nonzero"/>
    </clipPath>
    <clipPath id="b63ebc4b4c">
      <path d="M 20.835938 34.992188 L 37.796875 34.992188 L 37.796875 40.617188 L 20.835938 40.617188 Z M 20.835938 34.992188 " clip-rule="nonzero"/>
    </clipPath>
    <clipPath id="58aa726325">
      <path d="M 35.53125 40.59375 L 23.085938 40.59375 C 21.847656 40.59375 20.839844 39.589844 20.839844 38.351562 L 20.839844 37.234375 C 20.839844 35.996094 21.847656 34.992188 23.085938 34.992188 L 35.53125 34.992188 C 36.773438 34.992188 37.777344 35.996094 37.777344 37.234375 L 37.777344 38.351562 C 37.777344 39.589844 36.773438 40.59375 35.53125 40.59375 Z M 35.53125 40.59375 " clip-rule="nonzero"/>
    </clipPath>
    <clipPath id="c6a9e54b64">
      <path d="M 7.054688 34.664062 L 12.8125 34.664062 L 12.8125 40.421875 L 7.054688 40.421875 Z M 7.054688 34.664062 " clip-rule="nonzero"/>
    </clipPath>
    <clipPath id="b0811ec184">
      <path d="M 9.933594 40.421875 C 11.523438 40.421875 12.8125 39.132812 12.8125 37.542969 C 12.8125 35.953125 11.523438 34.664062 9.933594 34.664062 C 8.34375 34.664062 7.054688 35.953125 7.054688 37.542969 C 7.054688 39.132812 8.34375 40.421875 9.933594 40.421875 Z M 9.933594 40.421875 " clip-rule="nonzero"/>
    </clipPath>
  </defs>
  <g class="project-name">
    <g fill="#000000" fill-opacity="1">
      <g transform="translate(50.539627, 24.163934)">
        <g>
          <path d="M 8.9375 -1.46875 L 8.9375 0 L 1.640625 0 L 1.640625 -12.859375 L 3.375 -12.859375 L 3.375 -1.46875 Z M 8.9375 -1.46875 "/>
        </g>
      </g>
    </g>
    <g fill="#000000" fill-opacity="1">
      <g transform="translate(59.757706, 24.163934)">
        <g>
          <path d="M 6.1875 -4.09375 C 5.457031 -4.070312 4.832031 -4.015625 4.3125 -3.921875 C 3.789062 -3.828125 3.367188 -3.703125 3.046875 -3.546875 C 2.722656 -3.398438 2.488281 -3.222656 2.34375 -3.015625 C 2.195312 -2.816406 2.125 -2.59375 2.125 -2.34375 C 2.125 -2.101562 2.160156 -1.894531 2.234375 -1.71875 C 2.316406 -1.550781 2.421875 -1.410156 2.546875 -1.296875 C 2.679688 -1.179688 2.835938 -1.097656 3.015625 -1.046875 C 3.203125 -1.003906 3.40625 -0.984375 3.625 -0.984375 C 3.90625 -0.984375 4.160156 -1.007812 4.390625 -1.0625 C 4.617188 -1.125 4.835938 -1.207031 5.046875 -1.3125 C 5.253906 -1.414062 5.453125 -1.539062 5.640625 -1.6875 C 5.828125 -1.84375 6.007812 -2.015625 6.1875 -2.203125 Z M 1.03125 -7.8125 C 1.53125 -8.289062 2.070312 -8.648438 2.65625 -8.890625 C 3.238281 -9.128906 3.882812 -9.25 4.59375 -9.25 C 5.09375 -9.25 5.539062 -9.164062 5.9375 -9 C 6.332031 -8.832031 6.664062 -8.597656 6.9375 -8.296875 C 7.207031 -8.003906 7.410156 -7.644531 7.546875 -7.21875 C 7.679688 -6.789062 7.75 -6.320312 7.75 -5.8125 L 7.75 0 L 7.046875 0 C 6.890625 0 6.769531 -0.0234375 6.6875 -0.078125 C 6.601562 -0.128906 6.535156 -0.226562 6.484375 -0.375 L 6.3125 -1.234375 C 6.070312 -1.015625 5.835938 -0.816406 5.609375 -0.640625 C 5.378906 -0.472656 5.140625 -0.332031 4.890625 -0.21875 C 4.640625 -0.101562 4.367188 -0.015625 4.078125 0.046875 C 3.796875 0.109375 3.484375 0.140625 3.140625 0.140625 C 2.785156 0.140625 2.453125 0.09375 2.140625 0 C 1.828125 -0.101562 1.554688 -0.253906 1.328125 -0.453125 C 1.097656 -0.648438 0.914062 -0.898438 0.78125 -1.203125 C 0.644531 -1.503906 0.578125 -1.859375 0.578125 -2.265625 C 0.578125 -2.628906 0.675781 -2.976562 0.875 -3.3125 C 1.070312 -3.644531 1.390625 -3.9375 1.828125 -4.1875 C 2.273438 -4.445312 2.851562 -4.660156 3.5625 -4.828125 C 4.28125 -4.992188 5.15625 -5.085938 6.1875 -5.109375 L 6.1875 -5.8125 C 6.1875 -6.519531 6.035156 -7.054688 5.734375 -7.421875 C 5.429688 -7.785156 4.988281 -7.96875 4.40625 -7.96875 C 4.007812 -7.96875 3.675781 -7.914062 3.40625 -7.8125 C 3.132812 -7.71875 2.898438 -7.609375 2.703125 -7.484375 C 2.515625 -7.359375 2.347656 -7.242188 2.203125 -7.140625 C 2.066406 -7.046875 1.929688 -7 1.796875 -7 C 1.691406 -7 1.597656 -7.023438 1.515625 -7.078125 C 1.441406 -7.140625 1.375 -7.210938 1.3125 -7.296875 Z M 1.03125 -7.8125 "/>
        </g>
      </g>
    </g>
    <g fill="#000000" fill-opacity="1">
      <g transform="translate(68.679591, 24.163934)">
        <g>
          <path d="M 2.78125 -7.265625 C 3.070312 -7.890625 3.425781 -8.375 3.84375 -8.71875 C 4.257812 -9.070312 4.769531 -9.25 5.375 -9.25 C 5.570312 -9.25 5.753906 -9.226562 5.921875 -9.1875 C 6.097656 -9.144531 6.257812 -9.082031 6.40625 -9 L 6.28125 -7.796875 C 6.25 -7.648438 6.160156 -7.578125 6.015625 -7.578125 C 5.929688 -7.578125 5.804688 -7.59375 5.640625 -7.625 C 5.484375 -7.664062 5.300781 -7.6875 5.09375 -7.6875 C 4.8125 -7.6875 4.554688 -7.644531 4.328125 -7.5625 C 4.109375 -7.476562 3.910156 -7.351562 3.734375 -7.1875 C 3.554688 -7.019531 3.394531 -6.816406 3.25 -6.578125 C 3.113281 -6.335938 2.988281 -6.0625 2.875 -5.75 L 2.875 0 L 1.265625 0 L 1.265625 -9.09375 L 2.1875 -9.09375 C 2.351562 -9.09375 2.46875 -9.054688 2.53125 -8.984375 C 2.601562 -8.921875 2.648438 -8.8125 2.671875 -8.65625 Z M 2.78125 -7.265625 "/>
        </g>
      </g>
    </g>
    <g fill="#000000" fill-opacity="1">
      <g transform="translate(75.070323, 24.163934)">
        <g>
          <path d="M 6.1875 -4.09375 C 5.457031 -4.070312 4.832031 -4.015625 4.3125 -3.921875 C 3.789062 -3.828125 3.367188 -3.703125 3.046875 -3.546875 C 2.722656 -3.398438 2.488281 -3.222656 2.34375 -3.015625 C 2.195312 -2.816406 2.125 -2.59375 2.125 -2.34375 C 2.125 -2.101562 2.160156 -1.894531 2.234375 -1.71875 C 2.316406 -1.550781 2.421875 -1.410156 2.546875 -1.296875 C 2.679688 -1.179688 2.835938 -1.097656 3.015625 -1.046875 C 3.203125 -1.003906 3.40625 -0.984375 3.625 -0.984375 C 3.90625 -0.984375 4.160156 -1.007812 4.390625 -1.0625 C 4.617188 -1.125 4.835938 -1.207031 5.046875 -1.3125 C 5.253906 -1.414062 5.453125 -1.539062 5.640625 -1.6875 C 5.828125 -1.84375 6.007812 -2.015625 6.1875 -2.203125 Z M 1.03125 -7.8125 C 1.53125 -8.289062 2.070312 -8.648438 2.65625 -8.890625 C 3.238281 -9.128906 3.882812 -9.25 4.59375 -9.25 C 5.09375 -9.25 5.539062 -9.164062 5.9375 -9 C 6.332031 -8.832031 6.664062 -8.597656 6.9375 -8.296875 C 7.207031 -8.003906 7.410156 -7.644531 7.546875 -7.21875 C 7.679688 -6.789062 7.75 -6.320312 7.75 -5.8125 L 7.75 0 L 7.046875 0 C 6.890625 0 6.769531 -0.0234375 6.6875 -0.078125 C 6.601562 -0.128906 6.535156 -0.226562 6.484375 -0.375 L 6.3125 -1.234375 C 6.070312 -1.015625 5.835938 -0.816406 5.609375 -0.640625 C 5.378906 -0.472656 5.140625 -0.332031 4.890625 -0.21875 C 4.640625 -0.101562 4.367188 -0.015625 4.078125 0.046875 C 3.796875 0.109375 3.484375 0.140625 3.140625 0.140625 C 2.785156 0.140625 2.453125 0.09375 2.140625 0 C 1.828125 -0.101562 1.554688 -0.253906 1.328125 -0.453125 C 1.097656 -0.648438 0.914062 -0.898438 0.78125 -1.203125 C 0.644531 -1.503906 0.578125 -1.859375 0.578125 -2.265625 C 0.578125 -2.628906 0.675781 -2.976562 0.875 -3.3125 C 1.070312 -3.644531 1.390625 -3.9375 1.828125 -4.1875 C 2.273438 -4.445312 2.851562 -4.660156 3.5625 -4.828125 C 4.28125 -4.992188 5.15625 -5.085938 6.1875 -5.109375 L 6.1875 -5.8125 C 6.1875 -6.519531 6.035156 -7.054688 5.734375 -7.421875 C 5.429688 -7.785156 4.988281 -7.96875 4.40625 -7.96875 C 4.007812 -7.96875 3.675781 -7.914062 3.40625 -7.8125 C 3.132812 -7.71875 2.898438 -7.609375 2.703125 -7.484375 C 2.515625 -7.359375 2.347656 -7.242188 2.203125 -7.140625 C 2.066406 -7.046875 1.929688 -7 1.796875 -7 C 1.691406 -7 1.597656 -7.023438 1.515625 -7.078125 C 1.441406 -7.140625 1.375 -7.210938 1.3125 -7.296875 Z M 1.03125 -7.8125 "/>
        </g>
      </g>
    </g>
    <g fill="#000000" fill-opacity="1">
      <g transform="translate(83.803719, 24.163934)">
        <g>
          <path d="M 9.0625 -9.09375 L 5.34375 0 L 3.90625 0 L 0.203125 -9.09375 L 1.515625 -9.09375 C 1.640625 -9.09375 1.742188 -9.054688 1.828125 -8.984375 C 1.910156 -8.921875 1.96875 -8.847656 2 -8.765625 L 4.3125 -2.90625 C 4.382812 -2.6875 4.445312 -2.472656 4.5 -2.265625 C 4.550781 -2.054688 4.601562 -1.847656 4.65625 -1.640625 C 4.695312 -1.847656 4.742188 -2.054688 4.796875 -2.265625 C 4.859375 -2.472656 4.925781 -2.6875 5 -2.90625 L 7.328125 -8.765625 C 7.367188 -8.859375 7.429688 -8.9375 7.515625 -9 C 7.597656 -9.0625 7.695312 -9.09375 7.8125 -9.09375 Z M 9.0625 -9.09375 "/>
        </g>
      </g>
    </g>
    <g fill="#000000" fill-opacity="1">
      <g transform="translate(92.815369, 24.163934)">
        <g>
          <path d="M 7.359375 -5.53125 C 7.359375 -5.90625 7.300781 -6.242188 7.1875 -6.546875 C 7.082031 -6.859375 6.929688 -7.125 6.734375 -7.34375 C 6.535156 -7.570312 6.289062 -7.75 6 -7.875 C 5.71875 -8 5.394531 -8.0625 5.03125 -8.0625 C 4.257812 -8.0625 3.648438 -7.835938 3.203125 -7.390625 C 2.765625 -6.941406 2.488281 -6.320312 2.375 -5.53125 Z M 8.640625 -1.28125 C 8.441406 -1.039062 8.203125 -0.832031 7.921875 -0.65625 C 7.648438 -0.476562 7.359375 -0.332031 7.046875 -0.21875 C 6.734375 -0.101562 6.410156 -0.0195312 6.078125 0.03125 C 5.742188 0.09375 5.410156 0.125 5.078125 0.125 C 4.453125 0.125 3.875 0.0195312 3.34375 -0.1875 C 2.8125 -0.40625 2.351562 -0.71875 1.96875 -1.125 C 1.582031 -1.53125 1.28125 -2.035156 1.0625 -2.640625 C 0.851562 -3.242188 0.75 -3.941406 0.75 -4.734375 C 0.75 -5.367188 0.84375 -5.957031 1.03125 -6.5 C 1.226562 -7.050781 1.507812 -7.53125 1.875 -7.9375 C 2.238281 -8.34375 2.679688 -8.660156 3.203125 -8.890625 C 3.734375 -9.117188 4.328125 -9.234375 4.984375 -9.234375 C 5.535156 -9.234375 6.039062 -9.140625 6.5 -8.953125 C 6.96875 -8.773438 7.367188 -8.515625 7.703125 -8.171875 C 8.046875 -7.828125 8.3125 -7.398438 8.5 -6.890625 C 8.6875 -6.390625 8.78125 -5.816406 8.78125 -5.171875 C 8.78125 -4.921875 8.753906 -4.753906 8.703125 -4.671875 C 8.648438 -4.585938 8.550781 -4.546875 8.40625 -4.546875 L 2.328125 -4.546875 C 2.347656 -3.972656 2.425781 -3.472656 2.5625 -3.046875 C 2.707031 -2.617188 2.90625 -2.257812 3.15625 -1.96875 C 3.40625 -1.6875 3.703125 -1.472656 4.046875 -1.328125 C 4.390625 -1.191406 4.78125 -1.125 5.21875 -1.125 C 5.613281 -1.125 5.957031 -1.171875 6.25 -1.265625 C 6.539062 -1.359375 6.789062 -1.457031 7 -1.5625 C 7.207031 -1.675781 7.378906 -1.78125 7.515625 -1.875 C 7.660156 -1.96875 7.785156 -2.015625 7.890625 -2.015625 C 8.023438 -2.015625 8.128906 -1.960938 8.203125 -1.859375 Z M 8.640625 -1.28125 "/>
        </g>
      </g>
    </g>
    <g fill="#000000" fill-opacity="1">
      <g transform="translate(102.293748, 24.163934)">
        <g>
          <path d="M 2.921875 -13.21875 L 2.921875 0 L 1.3125 0 L 1.3125 -13.21875 Z M 2.921875 -13.21875 "/>
        </g>
      </g>
    </g>
    <g fill="#000000" fill-opacity="1">
      <g transform="translate(106.532414, 24.163934)">
        <g/>
      </g>
    </g>
    <g fill="#000000" fill-opacity="1">
      <g transform="translate(50.539627, 48.078889)">
        <g>
          <path d="M 15.84375 -7.9375 C 15.84375 -6.769531 15.648438 -5.695312 15.265625 -4.71875 C 14.878906 -3.75 14.332031 -2.910156 13.625 -2.203125 C 12.925781 -1.503906 12.082031 -0.960938 11.09375 -0.578125 C 10.113281 -0.191406 9.019531 0 7.8125 0 L 1.765625 0 L 1.765625 -15.859375 L 7.8125 -15.859375 C 9.019531 -15.859375 10.113281 -15.660156 11.09375 -15.265625 C 12.082031 -14.878906 12.925781 -14.335938 13.625 -13.640625 C 14.332031 -12.941406 14.878906 -12.101562 15.265625 -11.125 C 15.648438 -10.15625 15.84375 -9.09375 15.84375 -7.9375 Z M 12.828125 -7.9375 C 12.828125 -8.800781 12.707031 -9.578125 12.46875 -10.265625 C 12.238281 -10.960938 11.90625 -11.550781 11.46875 -12.03125 C 11.039062 -12.507812 10.515625 -12.875 9.890625 -13.125 C 9.273438 -13.382812 8.582031 -13.515625 7.8125 -13.515625 L 4.734375 -13.515625 L 4.734375 -2.34375 L 7.8125 -2.34375 C 8.582031 -2.34375 9.273438 -2.46875 9.890625 -2.71875 C 10.515625 -2.976562 11.039062 -3.347656 11.46875 -3.828125 C 11.90625 -4.304688 12.238281 -4.890625 12.46875 -5.578125 C 12.707031 -6.273438 12.828125 -7.0625 12.828125 -7.9375 Z M 12.828125 -7.9375 "/>
        </g>
      </g>
    </g>
    <g fill="#000000" fill-opacity="1">
      <g transform="translate(67.07998, 48.078889)">
        <g>
          <path d="M 8.59375 -6.921875 C 8.59375 -7.273438 8.539062 -7.601562 8.4375 -7.90625 C 8.34375 -8.21875 8.195312 -8.488281 8 -8.71875 C 7.800781 -8.957031 7.550781 -9.144531 7.25 -9.28125 C 6.945312 -9.414062 6.59375 -9.484375 6.1875 -9.484375 C 5.40625 -9.484375 4.785156 -9.257812 4.328125 -8.8125 C 3.878906 -8.375 3.597656 -7.742188 3.484375 -6.921875 Z M 3.421875 -5.28125 C 3.460938 -4.707031 3.5625 -4.207031 3.71875 -3.78125 C 3.882812 -3.363281 4.097656 -3.019531 4.359375 -2.75 C 4.628906 -2.476562 4.941406 -2.273438 5.296875 -2.140625 C 5.660156 -2.003906 6.0625 -1.9375 6.5 -1.9375 C 6.9375 -1.9375 7.3125 -1.984375 7.625 -2.078125 C 7.945312 -2.179688 8.226562 -2.296875 8.46875 -2.421875 C 8.707031 -2.546875 8.914062 -2.660156 9.09375 -2.765625 C 9.28125 -2.867188 9.457031 -2.921875 9.625 -2.921875 C 9.84375 -2.921875 10.007812 -2.835938 10.125 -2.671875 L 10.90625 -1.671875 C 10.601562 -1.328125 10.265625 -1.035156 9.890625 -0.796875 C 9.515625 -0.554688 9.125 -0.363281 8.71875 -0.21875 C 8.3125 -0.0820312 7.898438 0.015625 7.484375 0.078125 C 7.066406 0.140625 6.660156 0.171875 6.265625 0.171875 C 5.484375 0.171875 4.753906 0.0390625 4.078125 -0.21875 C 3.410156 -0.476562 2.828125 -0.863281 2.328125 -1.375 C 1.828125 -1.882812 1.429688 -2.515625 1.140625 -3.265625 C 0.859375 -4.015625 0.71875 -4.882812 0.71875 -5.875 C 0.71875 -6.632812 0.84375 -7.351562 1.09375 -8.03125 C 1.34375 -8.707031 1.695312 -9.296875 2.15625 -9.796875 C 2.625 -10.296875 3.191406 -10.691406 3.859375 -10.984375 C 4.535156 -11.273438 5.289062 -11.421875 6.125 -11.421875 C 6.84375 -11.421875 7.5 -11.304688 8.09375 -11.078125 C 8.695312 -10.859375 9.210938 -10.53125 9.640625 -10.09375 C 10.066406 -9.65625 10.40625 -9.117188 10.65625 -8.484375 C 10.90625 -7.859375 11.03125 -7.140625 11.03125 -6.328125 C 11.03125 -5.921875 10.984375 -5.644531 10.890625 -5.5 C 10.804688 -5.351562 10.640625 -5.28125 10.390625 -5.28125 Z M 3.421875 -5.28125 "/>
        </g>
      </g>
    </g>
    <g fill="#000000" fill-opacity="1">
      <g transform="translate(78.794232, 48.078889)">
        <g>
          <path d="M 9.40625 -8.875 C 9.320312 -8.769531 9.238281 -8.6875 9.15625 -8.625 C 9.082031 -8.570312 8.972656 -8.546875 8.828125 -8.546875 C 8.691406 -8.546875 8.554688 -8.585938 8.421875 -8.671875 C 8.285156 -8.753906 8.125 -8.847656 7.9375 -8.953125 C 7.757812 -9.054688 7.546875 -9.148438 7.296875 -9.234375 C 7.046875 -9.328125 6.734375 -9.375 6.359375 -9.375 C 5.890625 -9.375 5.472656 -9.285156 5.109375 -9.109375 C 4.753906 -8.941406 4.457031 -8.695312 4.21875 -8.375 C 3.976562 -8.050781 3.800781 -7.660156 3.6875 -7.203125 C 3.570312 -6.742188 3.515625 -6.226562 3.515625 -5.65625 C 3.515625 -5.050781 3.578125 -4.515625 3.703125 -4.046875 C 3.828125 -3.578125 4.007812 -3.179688 4.25 -2.859375 C 4.5 -2.546875 4.796875 -2.304688 5.140625 -2.140625 C 5.484375 -1.972656 5.867188 -1.890625 6.296875 -1.890625 C 6.722656 -1.890625 7.070312 -1.941406 7.34375 -2.046875 C 7.613281 -2.160156 7.835938 -2.28125 8.015625 -2.40625 C 8.203125 -2.53125 8.363281 -2.644531 8.5 -2.75 C 8.632812 -2.863281 8.785156 -2.921875 8.953125 -2.921875 C 9.171875 -2.921875 9.332031 -2.835938 9.4375 -2.671875 L 10.21875 -1.671875 C 9.914062 -1.328125 9.585938 -1.035156 9.234375 -0.796875 C 8.890625 -0.554688 8.53125 -0.363281 8.15625 -0.21875 C 7.78125 -0.0820312 7.390625 0.015625 6.984375 0.078125 C 6.585938 0.140625 6.191406 0.171875 5.796875 0.171875 C 5.109375 0.171875 4.457031 0.0390625 3.84375 -0.21875 C 3.226562 -0.476562 2.6875 -0.859375 2.21875 -1.359375 C 1.757812 -1.859375 1.394531 -2.46875 1.125 -3.1875 C 0.863281 -3.90625 0.734375 -4.726562 0.734375 -5.65625 C 0.734375 -6.476562 0.851562 -7.238281 1.09375 -7.9375 C 1.332031 -8.644531 1.679688 -9.253906 2.140625 -9.765625 C 2.597656 -10.285156 3.164062 -10.691406 3.84375 -10.984375 C 4.53125 -11.273438 5.316406 -11.421875 6.203125 -11.421875 C 7.035156 -11.421875 7.769531 -11.285156 8.40625 -11.015625 C 9.039062 -10.753906 9.609375 -10.367188 10.109375 -9.859375 Z M 9.40625 -8.875 "/>
        </g>
      </g>
    </g>
    <g fill="#000000" fill-opacity="1">
      <g transform="translate(89.170325, 48.078889)">
        <g>
          <path d="M 6.3125 -11.421875 C 7.144531 -11.421875 7.90625 -11.285156 8.59375 -11.015625 C 9.28125 -10.753906 9.863281 -10.375 10.34375 -9.875 C 10.832031 -9.375 11.207031 -8.765625 11.46875 -8.046875 C 11.738281 -7.328125 11.875 -6.53125 11.875 -5.65625 C 11.875 -4.757812 11.738281 -3.953125 11.46875 -3.234375 C 11.207031 -2.515625 10.832031 -1.898438 10.34375 -1.390625 C 9.863281 -0.890625 9.28125 -0.503906 8.59375 -0.234375 C 7.90625 0.0351562 7.144531 0.171875 6.3125 0.171875 C 5.476562 0.171875 4.71875 0.0351562 4.03125 -0.234375 C 3.34375 -0.503906 2.753906 -0.890625 2.265625 -1.390625 C 1.773438 -1.898438 1.394531 -2.515625 1.125 -3.234375 C 0.863281 -3.953125 0.734375 -4.757812 0.734375 -5.65625 C 0.734375 -6.53125 0.863281 -7.328125 1.125 -8.046875 C 1.394531 -8.765625 1.773438 -9.375 2.265625 -9.875 C 2.753906 -10.375 3.34375 -10.753906 4.03125 -11.015625 C 4.71875 -11.285156 5.476562 -11.421875 6.3125 -11.421875 Z M 6.3125 -1.921875 C 7.25 -1.921875 7.941406 -2.234375 8.390625 -2.859375 C 8.847656 -3.492188 9.078125 -4.414062 9.078125 -5.625 C 9.078125 -6.84375 8.847656 -7.769531 8.390625 -8.40625 C 7.941406 -9.039062 7.25 -9.359375 6.3125 -9.359375 C 5.363281 -9.359375 4.660156 -9.035156 4.203125 -8.390625 C 3.742188 -7.753906 3.515625 -6.832031 3.515625 -5.625 C 3.515625 -4.414062 3.742188 -3.492188 4.203125 -2.859375 C 4.660156 -2.234375 5.363281 -1.921875 6.3125 -1.921875 Z M 6.3125 -1.921875 "/>
        </g>
      </g>
    </g>
    <g fill="#000000" fill-opacity="1">
      <g transform="translate(101.773022, 48.078889)">
        <g>
          <path d="M 1.34375 0 L 1.34375 -11.25 L 3 -11.25 C 3.34375 -11.25 3.570312 -11.085938 3.6875 -10.765625 L 3.859375 -9.921875 C 4.054688 -10.140625 4.257812 -10.335938 4.46875 -10.515625 C 4.6875 -10.703125 4.921875 -10.863281 5.171875 -11 C 5.421875 -11.132812 5.6875 -11.238281 5.96875 -11.3125 C 6.25 -11.382812 6.554688 -11.421875 6.890625 -11.421875 C 7.597656 -11.421875 8.179688 -11.226562 8.640625 -10.84375 C 9.097656 -10.46875 9.4375 -9.960938 9.65625 -9.328125 C 9.832031 -9.691406 10.050781 -10.007812 10.3125 -10.28125 C 10.582031 -10.550781 10.875 -10.769531 11.1875 -10.9375 C 11.5 -11.101562 11.832031 -11.222656 12.1875 -11.296875 C 12.539062 -11.378906 12.898438 -11.421875 13.265625 -11.421875 C 13.878906 -11.421875 14.425781 -11.328125 14.90625 -11.140625 C 15.394531 -10.953125 15.800781 -10.675781 16.125 -10.3125 C 16.457031 -9.945312 16.707031 -9.5 16.875 -8.96875 C 17.050781 -8.445312 17.140625 -7.84375 17.140625 -7.15625 L 17.140625 0 L 14.4375 0 L 14.4375 -7.15625 C 14.4375 -7.875 14.273438 -8.414062 13.953125 -8.78125 C 13.640625 -9.144531 13.179688 -9.328125 12.578125 -9.328125 C 12.304688 -9.328125 12.050781 -9.273438 11.8125 -9.171875 C 11.570312 -9.078125 11.359375 -8.941406 11.171875 -8.765625 C 10.992188 -8.585938 10.851562 -8.363281 10.75 -8.09375 C 10.65625 -7.820312 10.609375 -7.507812 10.609375 -7.15625 L 10.609375 0 L 7.890625 0 L 7.890625 -7.15625 C 7.890625 -7.914062 7.734375 -8.46875 7.421875 -8.8125 C 7.117188 -9.15625 6.675781 -9.328125 6.09375 -9.328125 C 5.695312 -9.328125 5.328125 -9.226562 4.984375 -9.03125 C 4.648438 -8.832031 4.335938 -8.566406 4.046875 -8.234375 L 4.046875 0 Z M 1.34375 0 "/>
        </g>
      </g>
    </g>
    <g fill="#000000" fill-opacity="1">
      <g transform="translate(120.145097, 48.078889)">
        <g>
          <path d="M 4.046875 -2.921875 C 4.359375 -2.546875 4.691406 -2.28125 5.046875 -2.125 C 5.410156 -1.96875 5.804688 -1.890625 6.234375 -1.890625 C 6.640625 -1.890625 7.003906 -1.96875 7.328125 -2.125 C 7.660156 -2.28125 7.941406 -2.515625 8.171875 -2.828125 C 8.398438 -3.140625 8.578125 -3.535156 8.703125 -4.015625 C 8.828125 -4.492188 8.890625 -5.0625 8.890625 -5.71875 C 8.890625 -6.375 8.835938 -6.929688 8.734375 -7.390625 C 8.628906 -7.847656 8.476562 -8.21875 8.28125 -8.5 C 8.082031 -8.78125 7.84375 -8.988281 7.5625 -9.125 C 7.28125 -9.257812 6.960938 -9.328125 6.609375 -9.328125 C 6.046875 -9.328125 5.566406 -9.207031 5.171875 -8.96875 C 4.773438 -8.726562 4.398438 -8.394531 4.046875 -7.96875 Z M 3.90625 -9.71875 C 4.363281 -10.238281 4.882812 -10.660156 5.46875 -10.984375 C 6.050781 -11.304688 6.738281 -11.46875 7.53125 -11.46875 C 8.144531 -11.46875 8.707031 -11.335938 9.21875 -11.078125 C 9.726562 -10.816406 10.164062 -10.441406 10.53125 -9.953125 C 10.90625 -9.472656 11.191406 -8.875 11.390625 -8.15625 C 11.585938 -7.445312 11.6875 -6.632812 11.6875 -5.71875 C 11.6875 -4.875 11.570312 -4.09375 11.34375 -3.375 C 11.125 -2.65625 10.800781 -2.03125 10.375 -1.5 C 9.957031 -0.976562 9.453125 -0.566406 8.859375 -0.265625 C 8.265625 0.0234375 7.597656 0.171875 6.859375 0.171875 C 6.222656 0.171875 5.679688 0.0703125 5.234375 -0.125 C 4.796875 -0.320312 4.398438 -0.59375 4.046875 -0.9375 L 4.046875 3.671875 L 1.34375 3.671875 L 1.34375 -11.25 L 3 -11.25 C 3.34375 -11.25 3.570312 -11.085938 3.6875 -10.765625 Z M 3.90625 -9.71875 "/>
        </g>
      </g>
    </g>
    <g fill="#000000" fill-opacity="1">
      <g transform="translate(132.60521, 48.078889)">
        <g>
          <path d="M 6.3125 -11.421875 C 7.144531 -11.421875 7.90625 -11.285156 8.59375 -11.015625 C 9.28125 -10.753906 9.863281 -10.375 10.34375 -9.875 C 10.832031 -9.375 11.207031 -8.765625 11.46875 -8.046875 C 11.738281 -7.328125 11.875 -6.53125 11.875 -5.65625 C 11.875 -4.757812 11.738281 -3.953125 11.46875 -3.234375 C 11.207031 -2.515625 10.832031 -1.898438 10.34375 -1.390625 C 9.863281 -0.890625 9.28125 -0.503906 8.59375 -0.234375 C 7.90625 0.0351562 7.144531 0.171875 6.3125 0.171875 C 5.476562 0.171875 4.71875 0.0351562 4.03125 -0.234375 C 3.34375 -0.503906 2.753906 -0.890625 2.265625 -1.390625 C 1.773438 -1.898438 1.394531 -2.515625 1.125 -3.234375 C 0.863281 -3.953125 0.734375 -4.757812 0.734375 -5.65625 C 0.734375 -6.53125 0.863281 -7.328125 1.125 -8.046875 C 1.394531 -8.765625 1.773438 -9.375 2.265625 -9.875 C 2.753906 -10.375 3.34375 -10.753906 4.03125 -11.015625 C 4.71875 -11.285156 5.476562 -11.421875 6.3125 -11.421875 Z M 6.3125 -1.921875 C 7.25 -1.921875 7.941406 -2.234375 8.390625 -2.859375 C 8.847656 -3.492188 9.078125 -4.414062 9.078125 -5.625 C 9.078125 -6.84375 8.847656 -7.769531 8.390625 -8.40625 C 7.941406 -9.039062 7.25 -9.359375 6.3125 -9.359375 C 5.363281 -9.359375 4.660156 -9.035156 4.203125 -8.390625 C 3.742188 -7.753906 3.515625 -6.832031 3.515625 -5.625 C 3.515625 -4.414062 3.742188 -3.492188 4.203125 -2.859375 C 4.660156 -2.234375 5.363281 -1.921875 6.3125 -1.921875 Z M 6.3125 -1.921875 "/>
        </g>
      </g>
    </g>
    <g fill="#000000" fill-opacity="1">
      <g transform="translate(145.207908, 48.078889)">
        <g>
          <path d="M 8.203125 -9.0625 C 8.128906 -8.945312 8.050781 -8.863281 7.96875 -8.8125 C 7.894531 -8.757812 7.796875 -8.734375 7.671875 -8.734375 C 7.535156 -8.734375 7.390625 -8.769531 7.234375 -8.84375 C 7.085938 -8.925781 6.914062 -9.007812 6.71875 -9.09375 C 6.519531 -9.1875 6.296875 -9.269531 6.046875 -9.34375 C 5.796875 -9.414062 5.5 -9.453125 5.15625 -9.453125 C 4.625 -9.453125 4.203125 -9.335938 3.890625 -9.109375 C 3.585938 -8.890625 3.4375 -8.59375 3.4375 -8.21875 C 3.4375 -7.976562 3.515625 -7.773438 3.671875 -7.609375 C 3.835938 -7.453125 4.046875 -7.3125 4.296875 -7.1875 C 4.554688 -7.0625 4.851562 -6.945312 5.1875 -6.84375 C 5.519531 -6.75 5.851562 -6.640625 6.1875 -6.515625 C 6.53125 -6.398438 6.863281 -6.269531 7.1875 -6.125 C 7.519531 -5.976562 7.816406 -5.785156 8.078125 -5.546875 C 8.335938 -5.316406 8.546875 -5.039062 8.703125 -4.71875 C 8.859375 -4.40625 8.9375 -4.019531 8.9375 -3.5625 C 8.9375 -3.019531 8.835938 -2.519531 8.640625 -2.0625 C 8.453125 -1.601562 8.164062 -1.207031 7.78125 -0.875 C 7.40625 -0.550781 6.9375 -0.296875 6.375 -0.109375 C 5.820312 0.078125 5.175781 0.171875 4.4375 0.171875 C 4.050781 0.171875 3.671875 0.132812 3.296875 0.0625 C 2.929688 0 2.578125 -0.09375 2.234375 -0.21875 C 1.898438 -0.34375 1.585938 -0.488281 1.296875 -0.65625 C 1.003906 -0.820312 0.75 -1.003906 0.53125 -1.203125 L 1.15625 -2.234375 C 1.238281 -2.359375 1.332031 -2.453125 1.4375 -2.515625 C 1.550781 -2.585938 1.691406 -2.625 1.859375 -2.625 C 2.023438 -2.625 2.179688 -2.578125 2.328125 -2.484375 C 2.484375 -2.390625 2.660156 -2.285156 2.859375 -2.171875 C 3.054688 -2.054688 3.285156 -1.953125 3.546875 -1.859375 C 3.816406 -1.765625 4.160156 -1.71875 4.578125 -1.71875 C 4.898438 -1.71875 5.175781 -1.753906 5.40625 -1.828125 C 5.632812 -1.910156 5.820312 -2.015625 5.96875 -2.140625 C 6.125 -2.265625 6.234375 -2.40625 6.296875 -2.5625 C 6.367188 -2.726562 6.40625 -2.898438 6.40625 -3.078125 C 6.40625 -3.347656 6.328125 -3.566406 6.171875 -3.734375 C 6.015625 -3.898438 5.804688 -4.046875 5.546875 -4.171875 C 5.285156 -4.296875 4.988281 -4.40625 4.65625 -4.5 C 4.320312 -4.601562 3.976562 -4.710938 3.625 -4.828125 C 3.28125 -4.941406 2.941406 -5.078125 2.609375 -5.234375 C 2.273438 -5.390625 1.976562 -5.585938 1.71875 -5.828125 C 1.46875 -6.078125 1.257812 -6.375 1.09375 -6.71875 C 0.9375 -7.070312 0.859375 -7.5 0.859375 -8 C 0.859375 -8.457031 0.953125 -8.894531 1.140625 -9.3125 C 1.328125 -9.726562 1.597656 -10.09375 1.953125 -10.40625 C 2.304688 -10.71875 2.742188 -10.960938 3.265625 -11.140625 C 3.796875 -11.328125 4.410156 -11.421875 5.109375 -11.421875 C 5.890625 -11.421875 6.597656 -11.289062 7.234375 -11.03125 C 7.867188 -10.78125 8.394531 -10.445312 8.8125 -10.03125 Z M 8.203125 -9.0625 "/>
        </g>
      </g>
    </g>
    <g fill="#000000" fill-opacity="1">
      <g transform="translate(154.84913, 48.078889)">
        <g>
          <path d="M 8.59375 -6.921875 C 8.59375 -7.273438 8.539062 -7.601562 8.4375 -7.90625 C 8.34375 -8.21875 8.195312 -8.488281 8 -8.71875 C 7.800781 -8.957031 7.550781 -9.144531 7.25 -9.28125 C 6.945312 -9.414062 6.59375 -9.484375 6.1875 -9.484375 C 5.40625 -9.484375 4.785156 -9.257812 4.328125 -8.8125 C 3.878906 -8.375 3.597656 -7.742188 3.484375 -6.921875 Z M 3.421875 -5.28125 C 3.460938 -4.707031 3.5625 -4.207031 3.71875 -3.78125 C 3.882812 -3.363281 4.097656 -3.019531 4.359375 -2.75 C 4.628906 -2.476562 4.941406 -2.273438 5.296875 -2.140625 C 5.660156 -2.003906 6.0625 -1.9375 6.5 -1.9375 C 6.9375 -1.9375 7.3125 -1.984375 7.625 -2.078125 C 7.945312 -2.179688 8.226562 -2.296875 8.46875 -2.421875 C 8.707031 -2.546875 8.914062 -2.660156 9.09375 -2.765625 C 9.28125 -2.867188 9.457031 -2.921875 9.625 -2.921875 C 9.84375 -2.921875 10.007812 -2.835938 10.125 -2.671875 L 10.90625 -1.671875 C 10.601562 -1.328125 10.265625 -1.035156 9.890625 -0.796875 C 9.515625 -0.554688 9.125 -0.363281 8.71875 -0.21875 C 8.3125 -0.0820312 7.898438 0.015625 7.484375 0.078125 C 7.066406 0.140625 6.660156 0.171875 6.265625 0.171875 C 5.484375 0.171875 4.753906 0.0390625 4.078125 -0.21875 C 3.410156 -0.476562 2.828125 -0.863281 2.328125 -1.375 C 1.828125 -1.882812 1.429688 -2.515625 1.140625 -3.265625 C 0.859375 -4.015625 0.71875 -4.882812 0.71875 -5.875 C 0.71875 -6.632812 0.84375 -7.351562 1.09375 -8.03125 C 1.34375 -8.707031 1.695312 -9.296875 2.15625 -9.796875 C 2.625 -10.296875 3.191406 -10.691406 3.859375 -10.984375 C 4.535156 -11.273438 5.289062 -11.421875 6.125 -11.421875 C 6.84375 -11.421875 7.5 -11.304688 8.09375 -11.078125 C 8.695312 -10.859375 9.210938 -10.53125 9.640625 -10.09375 C 10.066406 -9.65625 10.40625 -9.117188 10.65625 -8.484375 C 10.90625 -7.859375 11.03125 -7.140625 11.03125 -6.328125 C 11.03125 -5.921875 10.984375 -5.644531 10.890625 -5.5 C 10.804688 -5.351562 10.640625 -5.28125 10.390625 -5.28125 Z M 3.421875 -5.28125 "/>
        </g>
      </g>
    </g>
    <g fill="#000000" fill-opacity="1">
      <g transform="translate(166.563382, 48.078889)">
        <g>
          <path d="M 3.890625 -9.296875 C 4.242188 -9.972656 4.660156 -10.503906 5.140625 -10.890625 C 5.628906 -11.273438 6.203125 -11.46875 6.859375 -11.46875 C 7.378906 -11.46875 7.796875 -11.351562 8.109375 -11.125 L 7.9375 -9.09375 C 7.894531 -8.957031 7.835938 -8.863281 7.765625 -8.8125 C 7.703125 -8.757812 7.609375 -8.734375 7.484375 -8.734375 C 7.378906 -8.734375 7.21875 -8.75 7 -8.78125 C 6.789062 -8.820312 6.582031 -8.84375 6.375 -8.84375 C 6.070312 -8.84375 5.800781 -8.796875 5.5625 -8.703125 C 5.332031 -8.617188 5.125 -8.492188 4.9375 -8.328125 C 4.75 -8.160156 4.582031 -7.957031 4.4375 -7.71875 C 4.300781 -7.488281 4.171875 -7.226562 4.046875 -6.9375 L 4.046875 0 L 1.34375 0 L 1.34375 -11.25 L 2.921875 -11.25 C 3.203125 -11.25 3.394531 -11.195312 3.5 -11.09375 C 3.613281 -11 3.691406 -10.828125 3.734375 -10.578125 Z M 3.890625 -9.296875 "/>
        </g>
      </g>
    </g>
  </g>
  <g clip-path="url(#eaf2b92755)">
    <g clip-path="url(#35e3e6cd85)">
      <path fill="#5030bd" d="M 0 8.675781 L 44.839844 8.675781 L 44.839844 53.515625 L 0 53.515625 Z M 0 8.675781 " fill-opacity="1" fill-rule="nonzero"/>
    </g>
  </g>
  <g clip-path="url(#55fb03b0c7)">
    <g clip-path="url(#831c0718de)">
      <path fill="#ffffff" d="M 7.0625 21.761719 L 24.003906 21.761719 L 24.003906 27.363281 L 7.0625 27.363281 Z M 7.0625 21.761719 " fill-opacity="1" fill-rule="nonzero"/>
    </g>
  </g>
  <g clip-path="url(#1585df8d37)">
    <g clip-path="url(#4aa59bf06b)">
      <path fill="#ffffff" d="M 32.019531 21.761719 L 37.777344 21.761719 L 37.777344 27.519531 L 32.019531 27.519531 Z M 32.019531 21.761719 " fill-opacity="1" fill-rule="nonzero"/>
    </g>
  </g>
  <g clip-path="url(#b63ebc4b4c)">
    <g clip-path="url(#58aa726325)">
      <path fill="#ffffff" d="M 37.777344 40.59375 L 20.835938 40.59375 L 20.835938 34.992188 L 37.777344 34.992188 Z M 37.777344 40.59375 " fill-opacity="1" fill-rule="nonzero"/>
    </g>
  </g>
  <g clip-path="url(#c6a9e54b64)">
    <g clip-path="url(#b0811ec184)">
      <path fill="#ffffff" d="M 12.8125 40.421875 L 7.054688 40.421875 L 7.054688 34.664062 L 12.8125 34.664062 Z M 12.8125 40.421875 " fill-opacity="1" fill-rule="nonzero"/>
    </g>
  </g>
</svg>
