<svg xmlns="http://www.w3.org/2000/svg" viewBox="0 12.5 297.79998779296875 46.25" data-asc="0.97"><g fill="#000000"><g fill="#000000" transform="translate(0, 0)"><path d="M2.45 48.50L3.25 44.90L14.90 44.90Q18.35 44.90 21.25 43.55Q24.15 42.20 26.30 39.85Q28.45 37.50 29.63 34.50Q30.80 31.50 30.80 28.20Q30.80 24.70 29.45 21.97Q28.10 19.25 25.68 17.67Q23.25 16.10 19.95 16.10L9.80 16.10L10.60 12.50L20.35 12.50Q24.75 12.50 28.03 14.50Q31.30 16.50 33.15 19.97Q35 23.45 35 27.90Q35 31.95 33.48 35.67Q31.95 39.40 29.20 42.27Q26.45 45.15 22.73 46.83Q19.00 48.50 14.65 48.50L2.45 48.50M0 48.50L8.25 12.50L12.35 12.50L4.10 48.50L0 48.50ZM49 49Q45.75 49 43.30 47.60Q40.85 46.20 39.50 43.67Q38.15 41.15 38.15 37.80Q38.15 35.25 38.88 32.95Q39.60 30.65 40.90 28.75Q42.20 26.85 44 25.45Q45.80 24.05 47.95 23.27Q50.10 22.50 52.50 22.50Q55.60 22.50 57.93 23.75Q60.25 25 61.53 27.25Q62.80 29.50 62.80 32.50Q62.80 33.65 62.58 34.77Q62.35 35.90 61.85 36.95L41.20 36.95L41.95 33.60L60.10 33.60L58.40 36.30Q58.85 34.45 58.83 32.63Q58.80 30.80 58.13 29.27Q57.45 27.75 56.05 26.82Q54.65 25.90 52.30 25.90Q50.65 25.90 49.15 26.50Q47.65 27.10 46.40 28.17Q45.15 29.25 44.20 30.72Q43.25 32.20 42.75 33.98Q42.25 35.75 42.25 37.70Q42.25 41.40 44.20 43.50Q46.15 45.60 49.55 45.60Q51.85 45.60 53.55 44.58Q55.25 43.55 56.45 41.45L60.25 41.45Q58.40 45.25 55.55 47.13Q52.70 49 49 49ZM76.30 49.05Q73.25 49.05 71.00 47.67Q68.75 46.30 67.50 43.83Q66.25 41.35 66.25 38.05Q66.25 35.45 66.98 33.15Q67.70 30.85 69.03 28.90Q70.35 26.95 72.15 25.55Q73.95 24.15 76.10 23.38Q78.25 22.60 80.65 22.60Q82.70 22.60 84.40 23.25Q86.10 23.90 87.35 25.07Q88.60 26.25 89.30 27.88Q90.00 29.50 90.00 31.45L86.30 31.45Q86.25 29.75 85.50 28.55Q84.75 27.35 83.45 26.67Q82.15 26 80.35 26Q78.65 26 77.15 26.60Q75.65 27.20 74.40 28.32Q73.15 29.45 72.25 30.95Q71.35 32.45 70.85 34.30Q70.35 36.15 70.35 38.20Q70.35 41.75 72.00 43.73Q73.65 45.70 76.65 45.70Q79.35 45.70 81.45 44.20Q83.55 42.70 84.50 40.10L88.20 40.10Q86.85 44.20 83.63 46.63Q80.40 49.05 76.30 49.05ZM103.80 49Q100.60 49 98.15 47.58Q95.70 46.15 94.33 43.60Q92.95 41.05 92.95 37.70Q92.95 34.55 94.08 31.80Q95.20 29.05 97.18 26.95Q99.15 24.85 101.75 23.67Q104.35 22.50 107.35 22.50Q110.65 22.50 113.10 23.90Q115.55 25.30 116.90 27.82Q118.25 30.35 118.25 33.70Q118.25 36.85 117.10 39.63Q115.95 42.40 113.95 44.50Q111.95 46.60 109.35 47.80Q106.75 49 103.80 49M104.00 45.60Q106.05 45.60 107.90 44.67Q109.75 43.75 111.15 42.13Q112.55 40.50 113.35 38.35Q114.15 36.20 114.15 33.75Q114.15 30.15 112.28 28.02Q110.40 25.90 107.15 25.90Q105.05 25.90 103.23 26.80Q101.40 27.70 100.03 29.30Q98.65 30.90 97.85 33.02Q97.05 35.15 97.05 37.60Q97.05 41.25 98.95 43.42Q100.85 45.60 104.00 45.60ZM121.30 48.50L127.15 23L130.90 23L129.55 29L129.80 29L125.30 48.50L121.30 48.50M138.45 48.50L142.05 32.85Q142.85 29.45 141.65 27.67Q140.45 25.90 137.80 25.90Q134.60 25.90 132.05 28.17Q129.50 30.45 128.55 34.40L129.30 28.15Q131.20 25.45 133.88 23.97Q136.55 22.50 139.50 22.50Q143.45 22.50 145.40 24.90Q147.35 27.30 146.10 32.65L142.45 48.50L138.45 48.50M155.65 48.50L159.25 32.85Q160.05 29.45 158.85 27.67Q157.65 25.90 155.00 25.90Q151.80 25.90 149.23 28.20Q146.65 30.50 145.60 34.50L145.85 28.75Q147.75 25.60 150.60 24.05Q153.45 22.50 156.20 22.50Q158.95 22.50 160.80 23.75Q162.65 25 163.35 27.27Q164.05 29.55 163.30 32.65L159.65 48.50L155.65 48.50ZM180.80 48.95Q178.25 48.95 176.35 47.98Q174.45 47 173.40 45.25Q172.35 43.50 172.30 41.25L173.10 41.20L169 58.75L165 58.75L173.25 23L177 23L175.80 28.10L175.55 27.90Q177 25.30 179.53 23.90Q182.05 22.50 185.10 22.50Q189.55 22.50 192.10 25.32Q194.65 28.15 194.65 33.05Q194.65 36.35 193.58 39.23Q192.50 42.10 190.58 44.27Q188.65 46.45 186.15 47.70Q183.65 48.95 180.80 48.95M180.65 45.45Q182.75 45.45 184.55 44.52Q186.35 43.60 187.70 41.98Q189.05 40.35 189.80 38.20Q190.55 36.05 190.55 33.65Q190.55 30.10 188.83 28.05Q187.10 26 184 26Q182.35 26 180.83 26.60Q179.30 27.20 178.05 28.27Q176.80 29.35 175.85 30.82Q174.90 32.30 174.40 34.05Q173.90 35.80 173.90 37.70Q173.90 41.30 175.75 43.38Q177.60 45.45 180.65 45.45ZM209.40 49Q206.20 49 203.75 47.58Q201.30 46.15 199.93 43.60Q198.55 41.05 198.55 37.70Q198.55 34.55 199.68 31.80Q200.80 29.05 202.78 26.95Q204.75 24.85 207.35 23.67Q209.95 22.50 212.95 22.50Q216.25 22.50 218.70 23.90Q221.15 25.30 222.50 27.82Q223.85 30.35 223.85 33.70Q223.85 36.85 222.70 39.63Q221.55 42.40 219.55 44.50Q217.55 46.60 214.95 47.80Q212.35 49 209.40 49M209.60 45.60Q211.65 45.60 213.50 44.67Q215.35 43.75 216.75 42.13Q218.15 40.50 218.95 38.35Q219.75 36.20 219.75 33.75Q219.75 30.15 217.88 28.02Q216.00 25.90 212.75 25.90Q210.65 25.90 208.83 26.80Q207.00 27.70 205.63 29.30Q204.25 30.90 203.45 33.02Q202.65 35.15 202.65 37.60Q202.65 41.25 204.55 43.42Q206.45 45.60 209.60 45.60ZM236.65 49Q233.60 49 231.30 47.95Q229 46.90 227.75 45.02Q226.50 43.15 226.60 40.65L230.45 40.65Q230.50 42.20 231.33 43.33Q232.15 44.45 233.58 45.08Q235 45.70 236.85 45.70Q239.35 45.70 240.88 44.60Q242.40 43.50 242.40 41.65Q242.40 40.40 241.60 39.58Q240.80 38.75 239.05 38.05L235.40 36.50Q232.65 35.35 231.33 33.83Q230 32.30 230 30.15Q230 27.90 231.20 26.17Q232.40 24.45 234.48 23.47Q236.55 22.50 239.25 22.50Q241.90 22.50 243.95 23.45Q246 24.40 247.18 26.07Q248.35 27.75 248.40 30.05L244.60 30.05Q244.45 28.70 243.73 27.75Q243 26.80 241.78 26.30Q240.55 25.80 238.85 25.80Q236.60 25.80 235.25 26.80Q233.90 27.80 233.90 29.55Q233.90 30.70 234.70 31.52Q235.50 32.35 237.25 33.10L240.80 34.60Q243.60 35.80 244.93 37.40Q246.25 39 246.25 41.20Q246.25 43.55 245.08 45.33Q243.90 47.10 241.75 48.05Q239.60 49 236.65 49ZM261.95 49Q258.70 49 256.25 47.60Q253.80 46.20 252.45 43.67Q251.10 41.15 251.10 37.80Q251.10 35.25 251.83 32.95Q252.55 30.65 253.85 28.75Q255.15 26.85 256.95 25.45Q258.75 24.05 260.90 23.27Q263.05 22.50 265.45 22.50Q268.55 22.50 270.88 23.75Q273.20 25 274.48 27.25Q275.75 29.50 275.75 32.50Q275.75 33.65 275.52 34.77Q275.30 35.90 274.80 36.95L254.15 36.95L254.90 33.60L273.05 33.60L271.35 36.30Q271.80 34.45 271.77 32.63Q271.75 30.80 271.07 29.27Q270.40 27.75 269 26.82Q267.60 25.90 265.25 25.90Q263.60 25.90 262.10 26.50Q260.60 27.10 259.35 28.17Q258.10 29.25 257.15 30.72Q256.20 32.20 255.70 33.98Q255.20 35.75 255.20 37.70Q255.20 41.40 257.15 43.50Q259.10 45.60 262.50 45.60Q264.80 45.60 266.50 44.58Q268.20 43.55 269.40 41.45L273.20 41.45Q271.35 45.25 268.50 47.13Q265.65 49 261.95 49ZM278.35 48.50L284.25 23L288 23L286.50 29.50L286.75 29.50L282.35 48.50L278.35 48.50M285.60 34.35L286.30 28.25Q287.60 25.70 290.03 24.10Q292.45 22.50 295.40 22.50Q296.25 22.50 296.85 22.63Q297.45 22.75 297.80 22.90L296.90 26.75Q296.50 26.60 295.68 26.47Q294.85 26.35 294.10 26.35Q290.85 26.35 288.65 28.40Q286.45 30.45 285.60 34.35Z"/></g></g></svg>